<?xml version="1.0" encoding="UTF-8"?>
<!DOCTYPE svg PUBLIC "-//W3C//DTD SVG 1.1//EN" "http://www.w3.org/Graphics/SVG/1.1/DTD/svg11.dtd">
<svg xmlns="http://www.w3.org/2000/svg" version="1.1" width="512px" height="512px" style="shape-rendering:geometricPrecision; text-rendering:geometricPrecision; image-rendering:optimizeQuality; fill-rule:evenodd; clip-rule:evenodd" xmlns:xlink="http://www.w3.org/1999/xlink">
<g><path style="opacity:0.965" fill="#C33332" d="M 249.5,52.5 C 272.593,51.2906 287.76,61.624 295,83.5C 295.499,89.4908 295.666,95.4908 295.5,101.5C 268.833,97.5 242.167,97.5 215.5,101.5C 212.839,75.1993 224.172,58.866 249.5,52.5 Z"/></g>
<g><path style="opacity:0.992" fill="#C33332" d="M 240.5,127.5 C 331.454,125.225 402.621,161.225 454,235.5C 475.674,270.023 487.84,307.689 490.5,348.5C 333.833,348.5 177.167,348.5 20.5,348.5C 28.9874,256.64 74.3207,190.14 156.5,149C 183.373,136.932 211.373,129.765 240.5,127.5 Z"/></g>
<g><path style="opacity:0.985" fill="#C33332" d="M 511.5,387.5 C 511.5,393.167 511.5,398.833 511.5,404.5C 505.206,432.296 488.206,449.796 460.5,457C 392.197,458.157 323.863,458.657 255.5,458.5C 187.137,458.657 118.803,458.157 50.5,457C 22.7942,449.796 5.79417,432.296 -0.5,404.5C -0.5,398.833 -0.5,393.167 -0.5,387.5C 1.73934,382.766 5.40601,379.599 10.5,378C 173.833,377.333 337.167,377.333 500.5,378C 505.594,379.599 509.261,382.766 511.5,387.5 Z"/></g>
</svg>
